<svg xmlns="http://www.w3.org/2000/svg" viewBox="0 0 512 512" width="512" height="512">
  <rect width="512" height="512" rx="128" fill="#000000"/>
  <g transform="translate(48, 48) scale(0.8125)">
    <path d="M 120 380 C 150 260 190 145 230 130 C 270 115 385 115 420 115 C 428 115 432 125 425 132 C 390 170 280 180 235 185 C 195 190 165 240 145 320 Z" fill="#FFFFFF"/>
    <path d="M 140 310 C 165 225 210 185 265 185 C 315 185 365 190 385 190 C 392 190 395 200 388 208 C 355 240 275 248 235 253 C 190 258 160 290 145 350 Z" fill="#FFFFFF"/>
    <path d="M 115 390 C 130 335 160 265 200 260 L 285 260 L 285 220 L 375 285 L 285 350 L 285 310 C 245 310 200 315 170 330 C 145 342 128 365 115 390 Z" fill="#FFFFFF"/>
  </g>
</svg>
